<?xml version="1.0" encoding="UTF-8"?><svg id="Capa_1" xmlns="http://www.w3.org/2000/svg" viewBox="0 0 45 39.962"><path d="M36.362,16.321c-9.51,5.981-5.853,19.649-14.563,19.155-2.005-.114-3.05-1.47-3.985-3.653l-4.438-10.362c-1.054-2.462-2.954-4.597-5.583-4.524.445-.763.898-1.458,1.601-2.335,9.449,3.762,8.817,18.635,13.093,18.654,4.664.021,3.222-14.147,13.229-19.22.085.692.13,1.412.646,2.285Z" fill="#a0c858"/><path d="M30.654,26.365c-.33-1.005,1.158-1.316,1.723-.916.341.242.78.651,1.041,1.444l2.634,7.986c.726,2.202,2.634,3.177,4.545,2.342,1.946-.85,2.311-2.651,1.575-4.828l-4.536-13.407c-.276-.816.511-1.819,1.922-1.57l5.149,15.227c1.101,3.257-1.041,6.131-4.225,7.114-2.539.784-5.722-.868-6.733-3.951l-3.096-9.441Z" fill="#1165aa"/><path d="M36.362,16.321c-.516-.873-.561-1.592-.646-2.285.832-.422,1.878-1.945,3.429-1.305,1.636.675,1.649,2.741.423,3.566-1.164.783-2.328.638-3.206.023Z" fill="#269ccb"/><path d="M4.397,37.224c5.999,2.658,6.358-13.99,9.596-12.506.295.135.599.774.394,1.408l-3.144,9.68c-.996,3.068-4.194,4.737-6.748,3.971-3.155-.946-5.296-3.912-4.208-7.132l5.147-15.23c1.439-.24,2.159.738,1.89,1.54l-4.501,13.437c-.731,2.182-.354,3.977,1.575,4.832Z" fill="#1367aa"/><path d="M9.394,14.602c-.703.876-1.156,1.572-1.601,2.335-1.24.034-3.052-.602-3.224-1.918-.224-1.712,1.123-2.263,2.228-2.518,2.041-.471,1.784,1.691,2.597,2.101Z" fill="#1b99cf"/><path d="M32.276,3.419c-1.106-1.451-3.755-.679-4.446.73l-4.809,9.803c-2.994-2.648-2.906-8.509-5.932-10.895-4.256-3.357-5.855,7.464-7.354,8.172-.351.166-1.413-.432-1.738-.979C9.211,5.506,12.109-.116,15.393.002c1.524.055,3.364.985,4.23,2.426l3.638,6.052C24.057,5.112,26.507.167,30.435.184c5.177.022,8.391,10.558,6.201,11.044-2.126.472-1.71-4.332-4.36-7.808Z" fill="#1366aa"/></svg>