<?xml version="1.0" encoding="UTF-8"?><svg id="Capa_1" xmlns="http://www.w3.org/2000/svg" viewBox="0 0 338.888 80"><polygon points="261.433 63.274 261.198 34.979 248.747 53.343 235.717 34.548 235.643 63.367 225.78 63.353 225.78 18.332 236.854 18.354 248.624 36.779 260.625 18.341 271.822 18.33 271.824 63.348 261.433 63.274" fill="#fff"/><polygon points="128.667 18.491 140.192 18.338 121.587 63.307 112.148 63.295 93.66 18.457 105.307 18.355 116.995 49.085 128.667 18.491" fill="#fff"/><path d="M338.888,28.757v8.495l-7.895.028-.037,15.695c.936,1.723,3,2.162,4.908,1.562l3.023-.948v8.495c-2.684,1.272-5.384,1.229-8.596,1.431-4.802.302-9.564-2.261-9.632-7.547l-.239-18.638-3.885-.128-.003-8.402,3.938-.089.025-9.095,10.258.208.206,8.904,7.929.028h0Z" fill="#fff"/><path d="M297.443,55.66c3.228.055,6.046-.653,8.242-3.496,2.486,1.24,4.597,2.998,6.465,5.484-4.216,4.748-10.816,6.957-16.998,6.202-8.87-1.084-15.412-7.336-16.18-16.087-.872-9.949,5.72-18.751,15.815-19.692,5.782-.539,11.804,1.133,15.205,5.814,3.262,4.49,4.517,10.047,3.676,15.645l-24.222.182c.991,3.764,4.122,5.882,7.997,5.948ZM303.565,42.955c-.294-4.489-4.083-7.355-7.531-6.829-3.584.547-6.798,3.074-6.514,6.994l14.045-.165Z" fill="#fff"/><path d="M195.702,63.699c-5.101-.644-8.524-3.281-9.988-7.394-1.427-4.009.003-9.385,3.868-11.82,5.645-3.556,12.171-3.307,18.42-1.194.505-3.231-1.586-5.626-4.623-6.098-4.175-.648-8.227.144-12.348,1.598l-2.778-7.848c5.941-2.527,11.983-3.385,18.034-2.554,7.228.992,11.731,6.19,11.693,13.458l-.114,21.513-9.071-.2c-.776-.017-.89-2.173-.845-3.056-3.421,2.715-7.637,4.179-12.248,3.597v-.002ZM207.359,53.751c.703-1.26,1.372-3.788.088-4.685-1.573-1.099-9.806-1.744-11.437,1.44-.794,1.548-.799,3.916.769,4.966,3.652,2.447,9.147.849,10.581-1.721h0Z" fill="#fff"/><path d="M181.67,53.46l-.012,7.781c-3.526,3.188-12.559,2.933-15.659.495-1.48-1.164-3.042-3.843-3.084-6.48l-.285-17.935-3.914-.117v-8.401l4.081-.113c-.141-3.017-.397-5.783.123-8.874l10.244-.198.028,9.125,8.52.028-.062,8.409-8.476.098.002,14.35c0,1.843,1.488,3.689,3.249,3.222l5.245-1.391h0Z" fill="#fff"/><polygon points="154.756 63.079 144.242 63.351 144.241 28.783 154.781 28.784 154.756 63.079" fill="#fff"/><polygon points="154.656 25.274 143.825 25.291 143.615 16.337 154.747 16.333 154.656 25.274" fill="#fff"/><path d="M33.119.003c7.098,2.403,9.641,10.36,12.238,17.845l3.489-8.076C50.707,5.463,53.38,2.037,57.705.004h5.005c3.793,1.1,6.044,3.857,7.519,7.603l4.245,10.784c.611,1.553-.124,3.11-1.548,3.253-4.817.483-4.85-18.003-13.141-17.161-8.561.869-9.222,21.679-14.464,21.037-.801-.098-2.133-.795-2.539-1.885l-3.712-9.97c-1.26-3.385-3.218-7.363-6.589-8.84-8.973-3.931-9.652,17.152-14.031,16.808-.74-.058-2.563-1.001-2.265-1.995,1.444-4.827,3.344-9.413,5.529-13.977C23.019,2.935,25.652,1.497,28.11-.002l5.01.003v.002Z" fill="#fff"/><path d="M71.803,27.818c-.052,1.934.291,3.422.685,4.932-5.722,2.148-9.368,7.375-11.312,12.761l-4.511,12.494c-1.417,3.924-2.817,7.554-5.832,10.616-2.764,2.807-7.211,3.766-10.567,1.397-6.78-4.786-7.8-17.169-13.215-26.813-2.372-4.224-6.128-9.886-11.006-10.149.838-1.519,1.532-2.797,1.837-4.239,2.76.309,4.497,1.961,6.328,3.594,13.328,11.883,12.489,34.443,20.417,34.345,9.697-.12,7.87-31.136,27.176-38.937h0Z" fill="#fff"/><path d="M28.389,53.112l-6.904,20.243c-2.55,7.476-13.166,8.276-17.313,4.235-2.484-2.42-5.154-6.26-3.814-10.347l10.277-31.331c.392-1.196,1.662-1.369,2.424-1.331,1.111.056,2.158,1.195,1.671,2.684l-9.813,29.982c-1.188,3.629.998,6.777,4.008,8.099,2.903,1.275,7.088.109,8.369-3.586l7.052-20.349c.369-1.064,1.611-1.849,2.42-1.616,1.148.33,2.182,1.677,1.622,3.318h0Z" fill="#fff"/><path d="M17.882,28.817c-.306,1.442-.999,2.72-1.837,4.239-2.807-.152-5.829,1.053-6.616-2.804-.485-2.374.451-4.961,3.667-5.402,2.085-.544,4.253,1.628,4.787,3.968h0Z" fill="#fff"/><path d="M60.723,52.605c-.446-1.29.838-2.267,1.316-2.638.574-.445,2.505-.082,2.842.92l6.548,19.456c1.295,3.848,4.473,6.349,8.414,5.25,3.558-.992,5.961-5.01,4.646-8.971l-9.93-29.904c-.271-.816,1.211-1.895,1.815-2.029.876-.194,2.123.287,2.54,1.537l9.91,29.733c2.032,6.098-2.281,12.805-8.126,13.74-5.535.885-10.889-.779-12.676-5.953l-7.301-21.14h.002Z" fill="#fff"/><path d="M72.488,32.75c-.394-1.51-.737-2.998-.685-4.932.998-1.3,1.98-3.614,4.44-3.119,1.528.308,2.985,1.273,3.905,3.26s-.937,3.644-1.942,4.761c-1.646,1.83-4.285-.279-5.718.03Z" fill="#fff"/></svg>