<?xml version="1.0" encoding="UTF-8"?>
<svg id="Capa_1" xmlns="http://www.w3.org/2000/svg" version="1.1" viewBox="0 0 24 24">
  <!-- Generator: Adobe Illustrator 30.5.1, SVG Export Plug-In . SVG Version: 2.1.4 Build 3)  -->
  <defs>
    <style>
      .st0 {
        fill: #0165a9;
      }
    </style>
  </defs>
  <path class="st0" d="M12,24h-1.25c-.83,0-1.97-.31-3.44-.94-1.46-.63-2.73-1.48-3.81-2.56-1.08-1.08-1.94-2.35-2.57-3.81-.63-1.46-.95-3.02-.95-4.68s.32-3.22.95-4.68c.63-1.46,1.49-2.73,2.57-3.81,1.08-1.08,2.35-1.94,3.81-2.57,1.46-.63,3.02-.95,4.68-.95s3.22.32,4.68.95c1.46.63,2.73,1.49,3.81,2.57,1.08,1.08,1.93,2.35,2.56,3.81.63,1.46.94,3.02.94,4.68s-.31,3.22-.94,4.68c-.63,1.46-1.48,2.73-2.56,3.81-1.08,1.08-2.35,1.93-3.81,2.56-1.46.63-3.02.94-4.68.94ZM10.8,21.54v-2.34c-.66,0-1.23-.23-1.69-.7-.47-.47-.71-1.04-.71-1.7v-1.2l-5.76-5.76c-.06.36-.11.72-.16,1.08-.05.36-.08.72-.08,1.08,0,2.42.8,4.54,2.39,6.36,1.59,1.82,3.6,2.88,6.02,3.18ZM19.08,18.48c.82-.9,1.45-1.91,1.88-3.01.43-1.11.65-2.27.65-3.47,0-1.96-.55-3.75-1.64-5.37-1.09-1.62-2.54-2.79-4.36-3.51v.48c0,.66-.24,1.22-.71,1.69-.47.47-1.03.71-1.7.71h-2.4v2.4c0,.34-.11.62-.34.86-.23.23-.52.34-.86.34h-2.4v2.4h7.2c.34,0,.62.11.85.34.23.23.34.52.34.85v3.6h1.2c.52,0,.99.16,1.41.46.42.31.71.72.87,1.22Z"/>
</svg>