<?xml version="1.0" encoding="UTF-8"?>
<svg id="Capa_1" xmlns="http://www.w3.org/2000/svg" version="1.1" viewBox="0 0 24 31.5">
  <!-- Generator: Adobe Illustrator 30.5.1, SVG Export Plug-In . SVG Version: 2.1.4 Build 3)  -->
  <defs>
    <style>
      .st0 {
        fill: #0165a9;
      }
    </style>
  </defs>
  <path class="st0" d="M8.51,17.55l1.31-4.28-3.45-2.77h4.27l1.35-4.2,1.35,4.2h4.27l-3.49,2.77,1.31,4.28-3.45-2.66-3.49,2.66ZM3,31.5v-11.59c-.95-1.05-1.69-2.25-2.21-3.6-.52-1.35-.79-2.79-.79-4.31,0-3.35,1.16-6.19,3.49-8.51C5.81,1.16,8.65,0,12,0s6.19,1.16,8.51,3.49c2.33,2.32,3.49,5.16,3.49,8.51,0,1.52-.26,2.96-.79,4.31-.52,1.35-1.26,2.55-2.21,3.6v11.59l-9-3-9,3ZM12,21h1.87c1.25,0,2.75-.87,4.5-2.63,1.75-1.75,2.63-3.87,2.63-6.37s-.87-4.62-2.63-6.37c-1.75-1.75-3.87-2.62-6.37-2.62s-4.62.87-6.37,2.62-2.62,3.87-2.62,6.37.87,4.62,2.62,6.37c1.75,1.75,3.87,2.63,6.37,2.63ZM6,27.04l6-1.54,6,1.54v-4.65c-.88.5-1.82.89-2.83,1.18-1.01.29-2.07.43-3.17.43s-2.16-.14-3.17-.43c-1.01-.29-1.96-.68-2.83-1.18v4.65Z"/>
</svg>