<?xml version="1.0" encoding="UTF-8"?>
<svg id="Capa_1" xmlns="http://www.w3.org/2000/svg" version="1.1" viewBox="0 0 24 24">
  <!-- Generator: Adobe Illustrator 30.5.1, SVG Export Plug-In . SVG Version: 2.1.4 Build 3)  -->
  <defs>
    <style>
      .st0 {
        fill: #0165a9;
      }
    </style>
  </defs>
  <path class="st0" d="M5.33,24v-2.67h5.33v-4.13c-1.09-.24-2.06-.71-2.92-1.38s-1.48-1.53-1.88-2.55c-1.67-.2-3.06-.93-4.18-2.18-1.12-1.26-1.68-2.73-1.68-4.42v-1.33c0-.73.26-1.36.78-1.88.52-.52,1.15-.78,1.88-.78h2.67V0h13.33v2.67h2.67c.73,0,1.36.26,1.88.78.52.52.78,1.15.78,1.88v1.33c0,1.69-.56,3.16-1.68,4.42s-2.52,1.98-4.18,2.18c-.4,1.02-1.03,1.87-1.88,2.55-.86.68-1.83,1.14-2.92,1.38v4.13h5.33v2.67H5.33ZM5.33,10.4v-5.07h-2.67v1.33c0,.84.24,1.61.73,2.28.49.68,1.13,1.16,1.93,1.45ZM12,14.67h.83c.56,0,1.22-.39,2-1.17.78-.78,1.17-1.72,1.17-2.83V2.67H8v8c0,1.11.39,2.06,1.17,2.83.78.78,1.72,1.17,2.83,1.17ZM18.67,10.4c.8-.29,1.44-.77,1.93-1.45.49-.68.73-1.44.73-2.28v-1.33h-2.67v5.07Z"/>
</svg>