<?xml version="1.0" encoding="UTF-8"?>
<svg id="Capa_1" xmlns="http://www.w3.org/2000/svg" version="1.1" viewBox="0 0 24 12">
  <!-- Generator: Adobe Illustrator 30.5.1, SVG Export Plug-In . SVG Version: 2.1.4 Build 3)  -->
  <defs>
    <style>
      .st0 {
        fill: #0165a9;
      }
    </style>
  </defs>
  <path class="st0" d="M0,12v-1.57c0-.72.37-1.3,1.1-1.75.73-.45,1.7-.68,2.9-.68.22,0,.42,0,.63.01.2,0,.39.03.58.06-.23.35-.41.72-.53,1.1-.12.38-.18.78-.18,1.2v1.62H0ZM6,12v-1.62c0-.53.15-1.02.44-1.46.29-.44.7-.83,1.24-1.16.53-.33,1.17-.58,1.91-.75.74-.17,1.55-.25,2.41-.25s1.7.08,2.44.25c.74.17,1.38.42,1.91.75.53.33.94.72,1.23,1.16.28.44.43.93.43,1.46v1.62H6ZM19.5,12v-1.62c0-.43-.05-.84-.16-1.23-.11-.38-.27-.74-.49-1.07.18-.03.37-.05.56-.06.19,0,.39-.01.59-.01,1.2,0,2.17.22,2.9.66.73.44,1.1,1.03,1.1,1.76v1.57h-4.5ZM8.13,10h7.77c-.17-.33-.63-.63-1.39-.87-.76-.25-1.6-.37-2.51-.37s-1.75.12-2.51.37c-.76.25-1.21.54-1.36.87ZM4,7c-.55,0-1.02-.2-1.41-.59-.39-.39-.59-.86-.59-1.41s.2-1.04.59-1.42c.39-.38.86-.58,1.41-.58s1.04.19,1.43.58c.38.38.57.86.57,1.42s-.19,1.02-.57,1.41c-.38.39-.86.59-1.43.59ZM20,7c-.55,0-1.02-.2-1.41-.59-.39-.39-.59-.86-.59-1.41s.2-1.04.59-1.42c.39-.38.86-.58,1.41-.58s1.04.19,1.43.58c.38.38.57.86.57,1.42s-.19,1.02-.57,1.41c-.38.39-.86.59-1.43.59ZM12,6c-.83,0-1.54-.29-2.13-.87-.58-.58-.87-1.29-.87-2.13s.29-1.56.87-2.14c.58-.58,1.29-.86,2.13-.86s1.56.29,2.14.86c.57.58.86,1.29.86,2.14s-.29,1.54-.86,2.13-1.29.87-2.14.87ZM12,4c.28,0,.52-.1.71-.29.19-.19.29-.43.29-.71s-.1-.52-.29-.71c-.19-.19-.43-.29-.71-.29s-.52.1-.71.29c-.19.19-.29.43-.29.71s.1.52.29.71c.19.19.43.29.71.29Z"/>
</svg>